<svg xmlns="http://www.w3.org/2000/svg" style="display: none;">
  <defs>
    <symbol id="checkbox-fill" width="24" height="24" fill="current" viewBox="0 0 24 24">
      <path fill="current" fill-rule="evenodd" d="M5 3a2 2 0 0 0-2 2v14a2 2 0 0 0 2 2h14a2 2 0 0 0 2-2V5a2 2 0 0 0-2-2H5Zm11.95 6.796a1 1 0 0 0-1.414-1.415l-4.95 4.95-2.121-2.121a1 1 0 0 0-1.415 1.414l2.758 2.758a1.1 1.1 0 0 0 1.556 0l5.586-5.586Z" clip-rule="evenodd"/>
    </symbol>
    <symbol id="checkbox-line" width="24" height="24" fill="current" viewBox="0 0 24 24">
      <path fill="current" fill-rule="evenodd" d="M5 3a2 2 0 0 0-2 2v14a2 2 0 0 0 2 2h14a2 2 0 0 0 2-2V5a2 2 0 0 0-2-2H5Zm0 2h14v14H5V5Zm11.95 4.795a1 1 0 1 0-1.414-1.414l-4.95 4.95h-.778c-.093-.093-1.546-2.288-1.667-2.338a1 1 0 0 0-1.091 1.631l2.758 2.758a1.1 1.1 0 0 0 1.556 0l5.586-5.587Z" clip-rule="evenodd"/>
    </symbol>
    <symbol id="time" width="24" height="24" fill="current" viewBox="0 0 24 24">
      <path fill="current" d="M12 2c5.523 0 10 4.477 10 10s-4.477 10-10 10S2 17.523 2 12 6.477 2 12 2Zm0 2a8 8 0 1 0 0 16 8 8 0 0 0 0-16Zm0 2a1 1 0 0 1 .993.883L13 7v4.586l2.707 2.707a1 1 0 0 1-1.32 1.497l-.094-.083-3-3a1 1 0 0 1-.284-.576L11 12V7a1 1 0 0 1 1-1Z"/>
    </symbol>
    <symbol id="qrcode" width="24" height="24" fill="current" viewBox="0 0 24 24">
      <path fill="current" d="M11 3a2 2 0 0 1 1.995 1.85L13 5v6a2 2 0 0 1-1.85 1.995L11 13H5a2 2 0 0 1-1.995-1.85L3 11V5a2 2 0 0 1 1.85-1.995L5 3h6Zm0 2H5v6h6V5ZM8.5 7a.5.5 0 0 1 .492.41L9 7.5v1a.5.5 0 0 1-.41.492L8.5 9h-1a.5.5 0 0 1-.492-.41L7 8.5v-1a.5.5 0 0 1 .41-.492L7.5 7h1ZM21 5a2 2 0 0 0-2-2h-2a2 2 0 0 0-2 2v2a2 2 0 0 0 2 2h2a2 2 0 0 0 2-2V5Zm-4 0h2v2h-2V5ZM7 15a2 2 0 0 1 2 2v2a2 2 0 0 1-2 2H5a2 2 0 0 1-2-2v-2a2 2 0 0 1 2-2h2Zm0 2H5v2h2v-2Zm14 0a2 2 0 0 0-2-2h-2a2 2 0 0 0-2 2v2a2 2 0 0 0 2 2h2a2 2 0 0 0 2-2v-2Zm-4 0h2v2h-2v-2Zm-2-5a1 1 0 0 1 1-1h4a1 1 0 0 1 0 2h-4a1 1 0 0 1-1-1Zm-2 4a1 1 0 0 0-2 0v4a1 1 0 0 0 2 0v-4Z"/>
    </symbol>
    <symbol id="up" width="24" height="24" fill="current" viewBox="0 0 24 24">
      <path fill="current" fill-rule="evenodd" d="M11.293 8.293a1 1 0 0 1 1.414 0l5.657 5.657a1 1 0 0 1-1.414 1.414L12 10.414l-4.95 4.95a1 1 0 0 1-1.414-1.414l5.657-5.657Z" clip-rule="evenodd"/>
    </symbol>
    <symbol id="check-circle" width="24" height="24" fill="current" viewBox="0 0 24 24">
      <path fill="current" d="M12 2c5.523 0 10 4.477 10 10s-4.477 10-10 10S2 17.523 2 12 6.477 2 12 2Zm0 2a8 8 0 1 0 0 16 8 8 0 0 0 0-16Zm3.535 4.381a1 1 0 0 1 1.498 1.32l-.083.094-5.586 5.587a1.1 1.1 0 0 1-1.46.085l-.096-.085-2.758-2.758a1 1 0 0 1 1.32-1.498l.094.084 2.122 2.121 4.95-4.95h-.001Z"/>
    </symbol>
    <symbol id="question" width="24" height="24" fill="current" viewBox="0 0 24 24">
      <path fill="current" d="M12 2c5.523 0 10 4.477 10 10s-4.477 10-10 10S2 17.523 2 12 6.477 2 12 2Zm0 2a8 8 0 1 0 0 16 8 8 0 0 0 0-16Zm0 12a1 1 0 1 1 0 2 1 1 0 0 1 0-2Zm0-9.5a3.625 3.625 0 0 1 1.348 6.99.8.8 0 0 0-.305.201c-.044.05-.051.114-.05.18L13 14a1 1 0 0 1-1.993.117L11 14v-.25c0-1.153.93-1.845 1.604-2.116a1.626 1.626 0 1 0-2.229-1.509 1 1 0 0 1-2 0A3.625 3.625 0 0 1 12 6.5Z"/>
    </symbol>
    <symbol id="checkbox-empty" width="24" height="24" fill="current" viewBox="0 0 24 24">
      <path fill="current" fill-rule="evenodd" d="M3 5a2 2 0 0 1 2-2h14a2 2 0 0 1 2 2v14a2 2 0 0 1-2 2H5a2 2 0 0 1-2-2V5Zm16 0H5v14h14V5Z" clip-rule="evenodd"/>
    </symbol>
    <symbol id="right" width="24" height="24" fill="current" viewBox="0 0 24 24">
      <path fill="current" fill-rule="evenodd" d="M15.707 11.293a1 1 0 0 1 0 1.414l-5.657 5.657a1 1 0 1 1-1.414-1.414l4.95-4.95-4.95-4.95a1 1 0 0 1 1.414-1.414l5.657 5.657Z" clip-rule="evenodd"/>
    </symbol>
    <symbol id="down" width="24" height="24" fill="current" viewBox="0 0 24 24">
      <path fill="current" fill-rule="evenodd" d="M12.707 15.707a1 1 0 0 1-1.414 0L5.636 10.05A1 1 0 1 1 7.05 8.636l4.95 4.95 4.95-4.95a1 1 0 0 1 1.414 1.414l-5.657 5.657Z" clip-rule="evenodd"/>
    </symbol>
    <symbol id="robot" width="24" height="24" fill="current" viewBox="0 0 24 24">
      <path fill="current" fill-rule="evenodd" d="M6.445 3.168a1 1 0 0 1 1.387.277L9.535 6h4.93l1.703-2.555a1.001 1.001 0 0 1 1.664 1.11L16.87 6H18a4 4 0 0 1 4 4v7a4 4 0 0 1-4 4H6a4 4 0 0 1-4-4v-7a4 4 0 0 1 4-4h1.131l-.963-1.445a1 1 0 0 1 .277-1.387ZM8.986 8H6a2 2 0 0 0-2 2v7a2 2 0 0 0 2 2h12a2 2 0 0 0 2-2v-7a2 2 0 0 0-2-2H8.986ZM9 11a1 1 0 0 1 1 1v2a1 1 0 0 1-2 0v-2a1 1 0 0 1 1-1Zm6 0a1 1 0 0 1 1 1v2a1 1 0 0 1-2 0v-2a1 1 0 0 1 1-1Z" clip-rule="evenodd"/>
    </symbol>
    <symbol id="clipboard" width="24" height="24" fill="current" viewBox="0 0 24 24">
      <path fill="current" d="M15 2c.683 0 1.287.343 1.647.866l.085.134H18a2 2 0 0 1 1.995 1.85L20 5v12a5 5 0 0 1-4.783 4.995L15 22H6a2 2 0 0 1-1.995-1.85L4 20V5a2 2 0 0 1 1.85-1.995L6 3h1.268a2 2 0 0 1 1.563-.993L9 2h6ZM7 5H6v15h9a3 3 0 0 0 3-3V5h-1a2 2 0 0 1-2 2H9a2 2 0 0 1-2-2Zm5 9a1 1 0 0 1 .117 1.993L12 16H9a1 1 0 0 1-.117-1.993L9 14h3Zm3-4a1 1 0 0 1 0 2H9a1 1 0 0 1 0-2h6Zm0-6H9v1h6V4Z"/>
    </symbol>
    <symbol id="eye" width="24" height="24" fill="current" viewBox="0 0 24 24">
      <path fill="current" d="M12 4c2.787 0 5.263 1.257 7.026 2.813.885.781 1.614 1.658 2.128 2.531.505.857.846 1.786.846 2.656 0 .87-.34 1.799-.846 2.656-.514.873-1.243 1.75-2.128 2.531C17.263 18.743 14.786 20 12 20c-2.787 0-5.263-1.257-7.026-2.813-.885-.781-1.614-1.658-2.128-2.531C2.34 13.799 2 12.87 2 12c0-.87.34-1.799.846-2.656.514-.873 1.243-1.75 2.128-2.531C6.737 5.257 9.214 4 12 4Zm0 2c-2.184 0-4.208.993-5.702 2.312-.744.656-1.332 1.373-1.729 2.047C4.163 11.049 4 11.62 4 12c0 .38.163.951.569 1.641.397.674.985 1.39 1.729 2.047C7.792 17.007 9.816 18 12 18s4.208-.993 5.702-2.312c.744-.657 1.332-1.373 1.729-2.047.406-.69.569-1.261.569-1.641 0-.38-.163-.951-.569-1.641-.397-.674-.985-1.39-1.729-2.047C16.208 6.993 14.184 6 12 6Zm0 3c.088 0 .175.004.261.011a2 2 0 0 0 2.728 2.728A3 3 0 1 1 12 9Z"/>
    </symbol>
    <symbol id="close" width="24" height="24" fill="current" viewBox="0 0 24 24">
      <path fill="current" fill-rule="evenodd" d="m12 13.414 5.657 5.657a1 1 0 0 0 1.414-1.414L13.414 12l5.657-5.657a1 1 0 0 0-1.414-1.414L12 10.586 6.343 4.929A1 1 0 0 0 4.93 6.343L10.586 12l-5.657 5.657a1 1 0 1 0 1.414 1.414L12 13.414Z" clip-rule="evenodd"/>
    </symbol>
    <symbol id="aiming" width="25" height="24" fill="current" viewBox="0 0 25 24">
      <path fill="current" d="M12.514 2a1 1 0 0 1 1 1v.055A9.004 9.004 0 0 1 21.459 11h.055a1 1 0 0 1 0 2h-.055a9.004 9.004 0 0 1-7.945 7.945V21a1 1 0 0 1-2 0v-.055A9.004 9.004 0 0 1 3.569 13h-.055a1 1 0 0 1 0-2h.055a9.004 9.004 0 0 1 7.945-7.945V3a1 1 0 0 1 1-1Zm1 3.07V6a1 1 0 0 1-1.993.117L11.514 6v-.93a7.01 7.01 0 0 0-5.888 5.676L5.585 11h.929a1 1 0 0 1 .117 1.993L6.514 13h-.93a7.01 7.01 0 0 0 5.676 5.888l.254.041V18a1 1 0 0 1 1.993-.117l.007.117v.93a7.01 7.01 0 0 0 5.888-5.676l.04-.254h-.928a1 1 0 0 1-.117-1.993l.117-.007h.93a7.01 7.01 0 0 0-5.676-5.888l-.254-.042Zm-1 5.43a1.5 1.5 0 1 1 0 3 1.5 1.5 0 0 1 0-3Z"/>
    </symbol>
    <symbol id="ai" width="25" height="24" fill="current" viewBox="0 0 25 24">
      <path fill="current" d="M9.62 5.448c.599-1.75 3.017-1.803 3.726-.159l.06.16.807 2.36a4 4 0 0 0 2.276 2.411l.217.081 2.36.806c1.75.598 1.803 3.016.16 3.725l-.16.06-2.36.807a4 4 0 0 0-2.412 2.276l-.081.216-.806 2.361c-.598 1.75-3.016 1.803-3.724.16l-.062-.16-.806-2.36a4 4 0 0 0-2.276-2.412l-.216-.081-2.36-.806c-1.751-.598-1.804-3.016-.16-3.724l.16-.062 2.36-.806a4 4 0 0 0 2.41-2.276l.082-.216.806-2.361Zm1.894.646-.806 2.36a6 6 0 0 1-3.49 3.649l-.25.091-2.36.806 2.36.806a5.999 5.999 0 0 1 3.649 3.49l.09.25.807 2.36.806-2.36a6 6 0 0 1 3.49-3.649l.25-.09L18.42 13l-2.36-.806a6 6 0 0 1-3.65-3.49l-.09-.25-.806-2.36Zm8-4.094a1 1 0 0 1 .898.56l.048.117.35 1.026 1.027.35a1 1 0 0 1 .118 1.845l-.118.048-1.026.35-.35 1.027a1 1 0 0 1-1.845.117l-.048-.117-.35-1.026-1.027-.35a1 1 0 0 1-.118-1.845l.118-.048 1.026-.35.35-1.027A1 1 0 0 1 19.514 2Z"/>
    </symbol>
    <symbol id="chart" width="24" height="24" fill="current" viewBox="0 0 24 24">
      <path fill="current" d="M4 4a1 1 0 0 1 .993.883L5 5v13h15a1 1 0 0 1 .117 1.993L20 20H4a1 1 0 0 1-.993-.883L3 19V5a1 1 0 0 1 1-1Zm16.194 2.818c.9 0 1.35 1.088.714 1.724l-5.57 5.57a1.1 1.1 0 0 1-1.555 0l-2.758-2.758-3.535 3.535a1 1 0 0 1-1.415-1.414l4.172-4.172a1.1 1.1 0 0 1 1.556 0l2.758 2.758 3.242-3.243h-.414a1 1 0 1 1 0-2h2.805Z"/>
    </symbol>
    <symbol id="balloon" width="24" height="24" fill="current" viewBox="0 0 24 24">
      <path fill="current" d="M12 2c4.43 0 8 3.66 8 8.059 0 2.505-1.118 4.957-2.601 6.77-1.008 1.231-2.285 2.283-3.622 2.81l-.287.105.404.809a1 1 0 0 1-.765 1.439L13 22h-2a1 1 0 0 1-.945-1.328l.05-.12.405-.808c-1.44-.483-2.829-1.596-3.909-2.916C5.118 15.016 4 12.564 4 10.058 4 5.66 7.57 2 12 2Zm0 2c-3.302 0-6 2.74-6 6.059 0 1.936.882 3.954 2.149 5.503C9.449 17.15 10.943 18 12 18s2.552-.85 3.851-2.438C17.118 14.013 18 11.995 18 10.059 18 6.74 15.302 4 12 4Zm1.278 1.181c1.654.479 2.92 1.84 3.448 3.52a1 1 0 1 1-1.908.599c-.352-1.123-1.165-1.928-2.096-2.198a1 1 0 1 1 .556-1.921Z"/>
    </symbol>
    <symbol id="camcorder" width="24" height="24" fill="current" viewBox="0 0 24 24">
      <path fill="current" fill-rule="evenodd" d="M12 4a8 8 0 1 0 0 16 8 8 0 0 0 0-16ZM2 12C2 6.477 6.477 2 12 2s10 4.477 10 10-4.477 10-10 10S2 17.523 2 12Zm10-4a4 4 0 1 0 0 8 4 4 0 0 0 0-8Zm-6 4a6 6 0 1 1 12 0 6 6 0 0 1-12 0Z" clip-rule="evenodd"/>
    </symbol>
    <symbol id="eye-close" width="24" height="24" fill="current" viewBox="0 0 24 24">
      <path fill="current" d="M3.05 9.31a1 1 0 1 1 1.914-.577c2.086 6.986 11.982 6.987 14.07.004a1 1 0 1 1 1.918.57 9.501 9.501 0 0 1-1.813 3.417L20.414 14A1 1 0 0 1 19 15.414l-1.311-1.311a9.1 9.1 0 0 1-2.32 1.269l.357 1.335a1 1 0 1 1-1.931.518l-.364-1.357c-.947.14-1.915.14-2.862 0l-.364 1.357a1 1 0 1 1-1.931-.518l.357-1.335a9.102 9.102 0 0 1-2.32-1.27L5 15.414A1 1 0 0 1 3.585 14l1.275-1.275c-.784-.936-1.41-2.074-1.812-3.414l.002-.001Z"/>
    </symbol>
    <symbol id="transfer" width="24" height="24" fill="current" viewBox="0 0 24 24">
      <path fill="current" d="M8.207 11.757a1 1 0 0 1 0 1.415L6.38 15H16a1 1 0 1 1 0 2H6.38l1.828 1.828a1 1 0 1 1-1.414 1.415l-3.536-3.536a1 1 0 0 1 0-1.414l3.536-3.536a1 1 0 0 1 1.414 0Zm7.586-8a1 1 0 0 1 1.32-.083l.094.083 3.536 3.536a1 1 0 0 1 .083 1.32l-.083.094-3.536 3.535a1 1 0 0 1-1.497-1.32l.083-.094L17.62 9H8a1 1 0 0 1-.117-1.993L8 7h9.621l-1.828-1.83a1 1 0 0 1 0-1.413Z"/>
    </symbol>
    <symbol id="voice" width="24" height="24" fill="current" viewBox="0 0 24 24">
      <path fill="current" d="M12 3a1 1 0 0 1 .993.883L13 4v16a1 1 0 0 1-1.993.117L11 20V4a1 1 0 0 1 1-1ZM8 6a1 1 0 0 1 1 1v10a1 1 0 1 1-2 0V7a1 1 0 0 1 1-1Zm8 0a1 1 0 0 1 1 1v10a1 1 0 0 1-2 0V7a1 1 0 0 1 1-1ZM4 9a1 1 0 0 1 1 1v4a1 1 0 1 1-2 0v-4a1 1 0 0 1 1-1Zm16 0a1 1 0 0 1 .993.883L21 10v4a1 1 0 0 1-1.993.117L19 14v-4a1 1 0 0 1 1-1Z"/>
    </symbol>
    <symbol id="arrow-right-circle-fill" width="24" height="24" fill="current" viewBox="0 0 24 24">
      <path fill="current" fill-rule="evenodd" d="M12 22c5.523 0 10-4.477 10-10S17.523 2 12 2 2 6.477 2 12s4.477 10 10 10Zm.005-14.242a1 1 0 0 0 0 1.414L13.833 11H7.757a1 1 0 0 0 0 2h6.076l-1.828 1.829a1 1 0 0 0 1.414 1.414l3.535-3.536a1 1 0 0 0 0-1.414L13.42 7.758a1 1 0 0 0-1.415 0Z" clip-rule="evenodd"/>
    </symbol>
    <symbol id="arrow-left-circle-fill" width="24" height="24" fill="current" viewBox="0 0 24 24">
      <path fill="current" fill-rule="evenodd" d="M12 22c5.523 0 10-4.477 10-10S17.523 2 12 2 2 6.477 2 12s4.477 10 10 10Zm-.005-5.758a1 1 0 0 0 0-1.414L10.168 13h6.076a1 1 0 0 0 0-2h-6.076l1.829-1.829a1 1 0 0 0-1.415-1.414l-3.535 3.536a1 1 0 0 0 0 1.414l3.535 3.535a1.001 1.001 0 0 0 1.415 0h-.002Z" clip-rule="evenodd"/>
    </symbol>
    <symbol id="home" width="26" height="26" fill="current" viewBox="0 0 26 26">
      <path fill="current" fill-rule="evenodd" d="M11.7 2.87a2.167 2.167 0 0 1 2.6 0l7.583 5.688a2.168 2.168 0 0 1 .867 1.734v10.291a2.167 2.167 0 0 1-2.167 2.167h-5.308a1.191 1.191 0 0 1-1.192-1.192v-6.391a1.083 1.083 0 1 0-2.166 0v6.391a1.194 1.194 0 0 1-1.192 1.192H5.417a2.167 2.167 0 0 1-2.167-2.167V10.292a2.167 2.167 0 0 1 .867-1.734L11.7 2.871ZM13 4.605l-7.583 5.688v10.291H9.75v-5.416a3.25 3.25 0 1 1 6.5 0v5.416h4.333V10.292L13 4.604Z" clip-rule="evenodd"/>
    </symbol>
    <symbol id="play-circle" width="26" height="26" fill="current" viewBox="0 0 26 26">
      <path fill="current" fill-rule="evenodd" d="M13 2.167c5.983 0 10.833 4.85 10.833 10.833 0 5.983-4.85 10.833-10.833 10.833-5.983 0-10.834-4.85-10.834-10.833C2.166 7.017 7.016 2.167 13 2.167Zm0 2.166a8.667 8.667 0 1 0 0 17.334 8.667 8.667 0 0 0 0-17.334ZM9.71 9.371a1.291 1.291 0 0 1 1.793-1.033l.352.155.476.22.379.182.422.213.466.241.5.272.535.303.27.158.508.305.464.29.611.399.503.345.493.355.09.066a1.292 1.292 0 0 1 0 2.068l-.306.226-.426.3-.537.362-.42.271-.465.293-.513.306c-.088.053-.18.106-.273.16l-.54.305-.504.274-.466.243-.422.212-.547.262-.434.196-.218.096a1.29 1.29 0 0 1-1.79-1.034l-.058-.54-.032-.362-.046-.65-.026-.498-.02-.548-.01-.595v-.627l.01-.593.02-.548.026-.499.046-.649.077-.79.013-.112Zm2.042 1.468-.03.506-.022.568-.013.629v.67l.013.627.022.57.03.505.45-.227.245-.128.529-.284.574-.324.566-.335.262-.16.48-.303.423-.277-.424-.278-.481-.304-.538-.325c-.283-.168-.57-.332-.859-.491l-.528-.284-.48-.246-.22-.11Z" clip-rule="evenodd"/>
    </symbol>
    <symbol id="chart-vertical" width="26" height="26" fill="current" viewBox="0 0 26 26">
      <path fill="current" fill-rule="evenodd" d="M5.417 5.417a1.083 1.083 0 0 0-2.167 0v15.166a1.083 1.083 0 0 0 1.083 1.084h17.334a1.083 1.083 0 1 0 0-2.167H5.417V5.417ZM9.75 13a1.083 1.083 0 0 0-2.167 0v3.25a1.083 1.083 0 1 0 2.167 0V13ZM13 6.5a1.083 1.083 0 0 1 1.083 1.083v8.667a1.083 1.083 0 1 1-2.166 0V7.583A1.083 1.083 0 0 1 13 6.5Zm5.417 4.333a1.084 1.084 0 0 0-2.167 0v5.417a1.083 1.083 0 1 0 2.167 0v-5.417Z" clip-rule="evenodd"/>
    </symbol>
    <symbol id="user" width="26" height="26" fill="current" viewBox="0 0 26 26">
      <path fill="current" fill-rule="evenodd" d="M13 2.167c5.983 0 10.833 4.85 10.833 10.833a10.79 10.79 0 0 1-2.446 6.858l.022.023-.143.122A10.81 10.81 0 0 1 13 23.833a10.805 10.805 0 0 1-8.05-3.582L4.735 20l-.143-.119.022-.026A10.79 10.79 0 0 1 2.167 13C2.167 7.017 7.017 2.167 13 2.167Zm0 16.25a9.63 9.63 0 0 0-5.193 1.523A8.634 8.634 0 0 0 13 21.667a8.635 8.635 0 0 0 5.192-1.727A9.642 9.642 0 0 0 13 18.417Zm0-14.084A8.667 8.667 0 0 0 6.22 18.4c1.756-1.26 4.153-2.149 6.78-2.149 2.627 0 5.023.89 6.78 2.15A8.666 8.666 0 0 0 13 4.332ZM13 6.5a4.334 4.334 0 1 1 0 8.667A4.334 4.334 0 0 1 13 6.5Zm0 2.167A2.167 2.167 0 1 0 13 13a2.167 2.167 0 0 0 0-4.333Z" clip-rule="evenodd"/>
    </symbol>
    <symbol id="notification-newdot" width="24" height="24" fill="current" viewBox="0 0 24 24">
      <path fill="current" fill-rule="evenodd" d="M5 9a7 7 0 0 1 7.582-6.976 1 1 0 1 1-.164 1.993A5 5 0 0 0 7 9v3.528a3 3 0 0 1-.317 1.342L5.618 16h12.764l-1.065-2.13A2.999 2.999 0 0 1 17 12.528V11a1 1 0 1 1 2 0v1.528a1 1 0 0 0 .105.447l1.717 3.433A1.1 1.1 0 0 1 19.838 18h-3.964a4.002 4.002 0 0 1-7.748 0H4.162a1.1 1.1 0 0 1-.984-1.592l1.716-3.433A1 1 0 0 0 5 12.528V9Zm5.268 9a2 2 0 0 0 3.464 0h-3.464ZM17.5 4a1.5 1.5 0 1 0 0 3 1.5 1.5 0 0 0 0-3ZM14 5.5a3.5 3.5 0 1 1 7 0 3.5 3.5 0 0 1-7 0Z" clip-rule="evenodd"/>
    </symbol>
    <symbol id="notification" width="24" height="24" fill="current" viewBox="0 0 24 24">
      <path fill="current" fill-rule="evenodd" d="M5 9a7 7 0 0 1 14 0v3.764l1.822 3.644A1.1 1.1 0 0 1 19.838 18h-3.964a4.002 4.002 0 0 1-7.748 0H4.162a1.1 1.1 0 0 1-.984-1.592L5 12.764V9Zm5.268 9a2 2 0 0 0 3.464 0h-3.464ZM12 4a5 5 0 0 0-5 5v3.764a2 2 0 0 1-.21.894L5.62 16h12.762l-1.17-2.342a2 2 0 0 1-.212-.894V9a5 5 0 0 0-5-5Z" clip-rule="evenodd"/>
    </symbol>
    <symbol id="eyeglass" width="24" height="24" fill="current" viewBox="0 0 24 24">
      <path fill="current" fill-rule="evenodd" d="M8 3a1 1 0 0 1 0 2h-.512a1 1 0 0 0-.958.713l-2.026 6.753a4.503 4.503 0 0 1 6.25 2.565c.08-.02.162-.03.246-.031h2c.085 0 .167.01.245.03a4.502 4.502 0 0 1 6.25-2.564L17.47 5.713A1 1 0 0 0 16.512 5H16a1 1 0 1 1 0-2h.512a3 3 0 0 1 2.873 2.138l2.235 7.45c.252.839.38 1.71.38 2.586V16.5a4.5 4.5 0 0 1-8.973.5h-2.054A4.5 4.5 0 0 1 2 16.5v-1.326a9 9 0 0 1 .38-2.586l2.235-7.45A3 3 0 0 1 7.488 3H8Zm9.5 11a2.5 2.5 0 1 0 0 5 2.5 2.5 0 0 0 0-5Zm-11 0a2.5 2.5 0 1 0 0 5 2.5 2.5 0 0 0 0-5Z" clip-rule="evenodd"/>
    </symbol>
    <symbol id="warning" width="24" height="24" fill="current" viewBox="0 0 24 24">
      <path fill="current" d="M12 2c5.523 0 10 4.477 10 10s-4.477 10-10 10S2 17.523 2 12 6.477 2 12 2Zm0 2a8 8 0 1 0 0 16 8 8 0 0 0 0-16Zm0 11a1 1 0 1 1 0 2 1 1 0 0 1 0-2Zm0-9a1 1 0 0 1 1 1v6a1 1 0 0 1-2 0V7a1 1 0 0 1 1-1Z"/>
    </symbol>
    <symbol id="dry" width="24" height="24" fill="current" viewBox="0 0 24 24">
      <path fill="current" fill-rule="evenodd" d="M7.37 3.071a1 1 0 0 1 .558 1.3L7.1 6.441a5 5 0 0 0 .482 4.63l.498.748a7 7 0 0 1 .675 6.483l-.828 2.07a1.001 1.001 0 0 1-1.857-.744l.828-2.07a5 5 0 0 0-.482-4.63l-.498-.747a7 7 0 0 1-.675-6.483l.827-2.07a1 1 0 0 1 1.3-.557Zm5 0a1 1 0 0 1 .558 1.3l-.827 2.07a5.002 5.002 0 0 0 .482 4.63l.498.748a7 7 0 0 1 .675 6.483l-.828 2.07a1 1 0 0 1-1.857-.744l.828-2.07a5 5 0 0 0-.482-4.63l-.498-.747a7 7 0 0 1-.675-6.483l.827-2.07a1 1 0 0 1 1.3-.557Zm5 0a1 1 0 0 1 .558 1.3l-.827 2.07a5.002 5.002 0 0 0 .482 4.63l.498.748a7 7 0 0 1 .675 6.483l-.828 2.07a1 1 0 1 1-1.857-.744l.828-2.07a5 5 0 0 0-.482-4.63l-.498-.747a7 7 0 0 1-.675-6.483l.827-2.07a1 1 0 0 1 1.3-.557Z" clip-rule="evenodd"/>
    </symbol>
    <symbol id="faceid" width="24" height="24" fill="current" viewBox="0 0 24 24">
      <path fill="current" d="M4 16a1 1 0 0 1 .993.883L5 17v2h2a1 1 0 0 1 .117 1.993L7 21H5a2 2 0 0 1-1.995-1.85L3 19v-2a1 1 0 0 1 1-1Zm16 0a1 1 0 0 1 1 1v2a2 2 0 0 1-2 2h-2a1 1 0 0 1 0-2h2v-2a1 1 0 0 1 1-1Zm-5.2-2.143a1 1 0 1 1 1.4 1.428A5.98 5.98 0 0 1 12 17a5.98 5.98 0 0 1-4.2-1.715 1 1 0 1 1 1.4-1.428A3.98 3.98 0 0 0 12 15c1.09 0 2.077-.435 2.8-1.143ZM8.5 8a1.5 1.5 0 1 1 0 3 1.5 1.5 0 0 1 0-3Zm7 0a1.5 1.5 0 1 1 0 3 1.5 1.5 0 0 1 0-3ZM7 3a1 1 0 0 1 0 2H5v2a1 1 0 0 1-2 0V5a2 2 0 0 1 2-2h2Zm12 0a2 2 0 0 1 2 2v2a1 1 0 0 1-2 0V5h-2a1 1 0 1 1 0-2h2Z"/>
    </symbol>
    <symbol id="eye-open" width="24" height="24" fill="current" viewBox="0 0 24 24">
      <path fill="current" d="M3.05 14.69a1 1 0 1 0 1.914.577c2.086-6.986 11.982-6.987 14.07-.004a.999.999 0 0 0 1.59.492 1 1 0 0 0 .328-1.062 9.501 9.501 0 0 0-1.813-3.417L20.414 10A1 1 0 0 0 19 8.586l-1.311 1.311a9.1 9.1 0 0 0-2.32-1.269l.357-1.335a1 1 0 1 0-1.931-.518l-.364 1.357a9.804 9.804 0 0 0-2.862 0l-.364-1.357a1 1 0 1 0-1.931.518l.357 1.335a9.1 9.1 0 0 0-2.32 1.27L5 8.586A1 1 0 0 0 3.585 10l1.275 1.275c-.784.936-1.41 2.074-1.812 3.414l.002.001Z"/>
      <circle cx="12.113" cy="13.657" r="2.494" fill="current"/>
    </symbol>
    <symbol id="good-face" width="16" height="16" fill="current" viewBox="0 0 16 16" >
      <path fill-rule="evenodd" clip-rule="evenodd" d="M2 8C2 4.68629 4.68629 2 8 2C11.3137 2 14 4.68629 14 8C14 11.3137 11.3137 14 8 14C4.68629 14 2 11.3137 2 8ZM8 0.5C3.85786 0.5 0.5 3.85786 0.5 8C0.5 12.1421 3.85786 15.5 8 15.5C12.1421 15.5 15.5 12.1421 15.5 8C15.5 3.85786 12.1421 0.5 8 0.5ZM5.375 7.25C5.99632 7.25 6.5 6.74632 6.5 6.125C6.5 5.50368 5.99632 5 5.375 5C4.75368 5 4.25 5.50368 4.25 6.125C4.25 6.74632 4.75368 7.25 5.375 7.25ZM11.75 6.125C11.75 6.74632 11.2463 7.25 10.625 7.25C10.0037 7.25 9.5 6.74632 9.5 6.125C9.5 5.50368 10.0037 5 10.625 5C11.2463 5 11.75 5.50368 11.75 6.125ZM4.76283 8.78849C5.15456 8.65791 5.57788 8.86855 5.71028 9.25916L5.71313 9.26708C5.71648 9.27622 5.72266 9.29263 5.73183 9.31529C5.75022 9.36072 5.78028 9.43039 5.82316 9.51615C5.90977 9.68936 6.0439 9.91864 6.23242 10.1449C6.60483 10.5918 7.16082 11 8 11C8.83918 11 9.39517 10.5918 9.76758 10.1449C9.9561 9.91864 10.0902 9.68936 10.1768 9.51615C10.2197 9.43039 10.2498 9.36072 10.2682 9.31529C10.2773 9.29263 10.2835 9.27622 10.2869 9.26708L10.2897 9.25916C10.4221 8.86855 10.8454 8.65791 11.2372 8.78849C11.6301 8.91947 11.8425 9.34421 11.7115 9.73717L11 9.5C11.7115 9.73717 11.7114 9.73749 11.7113 9.73782L11.7111 9.73853L11.7105 9.7401L11.7093 9.74387L11.7058 9.75388C11.7031 9.76163 11.6996 9.77154 11.6952 9.78346C11.6865 9.80728 11.6743 9.8392 11.6586 9.87807C11.6272 9.95568 11.5811 10.0618 11.5185 10.187C11.3941 10.4356 11.2001 10.7689 10.9199 11.1051C10.3548 11.7832 9.41082 12.5 8 12.5C6.58918 12.5 5.64517 11.7832 5.08008 11.1051C4.79985 10.7689 4.60586 10.4356 4.48152 10.187C4.41893 10.0618 4.37282 9.95568 4.34141 9.87807C4.32568 9.8392 4.31355 9.80728 4.30482 9.78346C4.30045 9.77154 4.29692 9.76163 4.29421 9.75388L4.29075 9.74387L4.28947 9.7401L4.28894 9.73853L4.28871 9.73782C4.28859 9.73749 4.28849 9.73717 5 9.5L4.28849 9.73717C4.1575 9.34421 4.36987 8.91947 4.76283 8.78849Z" fill="current"/>
    </symbol>
    <symbol id="plus" width="20" height="22" viewBox="0 0 20 22" fill="current">
      <path d="M8.5 18C8.5 18.3978 8.65804 18.7794 8.93934 19.0607C9.22064 19.342 9.60218 19.5 10 19.5C10.3978 19.5 10.7794 19.342 11.0607 19.0607C11.342 18.7794 11.5 18.3978 11.5 18V11.5H18C18.3978 11.5 18.7794 11.342 19.0607 11.0607C19.342 10.7794 19.5 10.3978 19.5 10C19.5 9.60218 19.342 9.22064 19.0607 8.93934C18.7794 8.65804 18.3978 8.5 18 8.5H11.5V2C11.5 1.60218 11.342 1.22064 11.0607 0.93934C10.7794 0.658035 10.3978 0.5 10 0.5C9.60218 0.5 9.22064 0.658035 8.93934 0.93934C8.65804 1.22064 8.5 1.60218 8.5 2V8.5H2C1.60218 8.5 1.22064 8.65804 0.93934 8.93934C0.658035 9.22064 0.5 9.60218 0.5 10C0.5 10.3978 0.658035 10.7794 0.93934 11.0607C1.22064 11.342 1.60218 11.5 2 11.5H8.5V18Z" fill="current"/>
    </symbol>
    <symbol id="bad-face" width="16" height="16" viewBox="0 0 16 16" fill="current">
      <path fill-rule="evenodd" clip-rule="evenodd" d="M2 8C2 4.68629 4.68629 2 8 2C11.3137 2 14 4.68629 14 8C14 11.3137 11.3137 14 8 14C4.68629 14 2 11.3137 2 8ZM8 0.5C3.85786 0.5 0.5 3.85786 0.5 8C0.5 12.1421 3.85786 15.5 8 15.5C12.1421 15.5 15.5 12.1421 15.5 8C15.5 3.85786 12.1421 0.5 8 0.5ZM5.375 7.25C5.99632 7.25 6.5 6.74632 6.5 6.125C6.5 5.50368 5.99632 5 5.375 5C4.75368 5 4.25 5.50368 4.25 6.125C4.25 6.74632 4.75368 7.25 5.375 7.25ZM11.75 6.125C11.75 6.74632 11.2463 7.25 10.625 7.25C10.0037 7.25 9.5 6.74632 9.5 6.125C9.5 5.50368 10.0037 5 10.625 5C11.2463 5 11.75 5.50368 11.75 6.125ZM11.2372 12.4615C10.8454 12.5921 10.4221 12.3814 10.2897 11.9908L10.2869 11.9829C10.2835 11.9738 10.2773 11.9574 10.2682 11.9347C10.2498 11.8893 10.2197 11.8196 10.1768 11.7338C10.0902 11.5606 9.9561 11.3314 9.76758 11.1051C9.39517 10.6582 8.83918 10.25 8 10.25C7.16082 10.25 6.60483 10.6582 6.23242 11.1051C6.0439 11.3314 5.90977 11.5606 5.82316 11.7338C5.78028 11.8196 5.75022 11.8893 5.73183 11.9347C5.72266 11.9574 5.71648 11.9738 5.71313 11.9829L5.71028 11.9908C5.57788 12.3814 5.15456 12.5921 4.76283 12.4615C4.36987 12.3305 4.1575 11.9058 4.28849 11.5128L5 11.75C4.28849 11.5128 4.2886 11.5125 4.28871 11.5122L4.28894 11.5115L4.28947 11.5099L4.29075 11.5061L4.29421 11.4961C4.29692 11.4884 4.30045 11.4785 4.30482 11.4665C4.31355 11.4427 4.32568 11.4108 4.34141 11.3719C4.37282 11.2943 4.41893 11.1882 4.48152 11.063C4.60586 10.8144 4.79985 10.4811 5.08008 10.1449C5.64517 9.46675 6.58918 8.75 8 8.75C9.41082 8.75 10.3548 9.46675 10.9199 10.1449C11.2001 10.4811 11.3941 10.8144 11.5185 11.063C11.5811 11.1882 11.6272 11.2943 11.6586 11.3719C11.6743 11.4108 11.6865 11.4427 11.6952 11.4665C11.6996 11.4785 11.7031 11.4884 11.7058 11.4961L11.7093 11.5061L11.7105 11.5099L11.7111 11.5115L11.7113 11.5122C11.7114 11.5125 11.7115 11.5128 11 11.75L11.7115 11.5128C11.8425 11.9058 11.6301 12.3305 11.2372 12.4615Z" fill="current"/>
    </symbol>
    <symbol id="normal-face" width="16" height="16" viewBox="0 0 16 16" fill="current">
      <path fill-rule="evenodd" clip-rule="evenodd" d="M2 8C2 4.68629 4.68629 2 8 2C11.3137 2 14 4.68629 14 8C14 11.3137 11.3137 14 8 14C4.68629 14 2 11.3137 2 8ZM8 0.5C3.85786 0.5 0.5 3.85786 0.5 8C0.5 12.1421 3.85786 15.5 8 15.5C12.1421 15.5 15.5 12.1421 15.5 8C15.5 3.85786 12.1421 0.5 8 0.5ZM5.375 7.25C5.99632 7.25 6.5 6.74632 6.5 6.125C6.5 5.50368 5.99632 5 5.375 5C4.75368 5 4.25 5.50368 4.25 6.125C4.25 6.74632 4.75368 7.25 5.375 7.25ZM11.75 6.125C11.75 6.74632 11.2463 7.25 10.625 7.25C10.0037 7.25 9.5 6.74632 9.5 6.125C9.5 5.50368 10.0037 5 10.625 5C11.2463 5 11.75 5.50368 11.75 6.125ZM11 11.1147C11.4142 11.1147 11.75 10.7789 11.75 10.3647C11.75 9.95044 11.4142 9.61465 11 9.61465H11H11H10.9999H10.9999H10.9998H10.9998H10.9997H10.9996H10.9995H10.9994H10.9993H10.9992H10.9991H10.999H10.9988H10.9986H10.9985H10.9983H10.9981H10.9979H10.9977H10.9975H10.9973H10.997H10.9968H10.9965H10.9962H10.9959H10.9957H10.9953H10.995H10.9947H10.9944H10.994H10.9937H10.9933H10.9929H10.9925H10.9921H10.9917H10.9913H10.9908H10.9904H10.9899H10.9894H10.9889H10.9884H10.9879H10.9874H10.9868H10.9863H10.9857H10.9852H10.9846H10.984H10.9834H10.9827H10.9821H10.9814H10.9808H10.9801H10.9794H10.9787H10.978H10.9773H10.9765H10.9758H10.975H10.9742H10.9734H10.9726H10.9718H10.9709H10.9701H10.9692H10.9683H10.9674H10.9665H10.9656H10.9647H10.9637H10.9628H10.9618H10.9608H10.9598H10.9587H10.9577H10.9567H10.9556H10.9545H10.9534H10.9523H10.9512H10.95H10.9489H10.9477H10.9465H10.9453H10.9441H10.9428H10.9416H10.9403H10.939H10.9377H10.9364H10.9351H10.9338H10.9324H10.931H10.9296H10.9282H10.9268H10.9253H10.9239H10.9224H10.9209H10.9194H10.9179H10.9163H10.9148H10.9132H10.9116H10.91H10.9084H10.9067H10.9051H10.9034H10.9017H10.9H10.8982H10.8965H10.8947H10.8929H10.8911H10.8893H10.8875H10.8856H10.8837H10.8818H10.8799H10.878H10.8761H10.8741H10.8721H10.8701H10.8681H10.866H10.864H10.8619H10.8598H10.8577H10.8556H10.8534H10.8512H10.8491H10.8468H10.8446H10.8424H10.8401H10.8378H10.8355H10.8332H10.8308H10.8285H10.8261H10.8237H10.8212H10.8188H10.8163H10.8138H10.8113H10.8088H10.8063H10.8037H10.8011H10.7985H10.7959H10.7932H10.7906H10.7879H10.7852H10.7824H10.7797H10.7769H10.7741H10.7713H10.7684H10.7656H10.7627H10.7598H10.7569H10.7539H10.751H10.748H10.745H10.7419H10.7389H10.7358H10.7327H10.7296H10.7264H10.7233H10.7201H10.7169H10.7137H10.7104H10.7071H10.7038H10.7005H10.6972H10.6938H10.6904H10.687H10.6835H10.6801H10.6766H10.6731H10.6696H10.666H10.6624H10.6588H10.6552H10.6516H10.6479H10.6442H10.6405H10.6368H10.633H10.6292H10.6254H10.6215H10.6177H10.6138H10.6099H10.606H10.602H10.598H10.594H10.59H10.5859H10.5818H10.5777H10.5736H10.5694H10.5653H10.5611H10.5568H10.5526H10.5483H10.544H10.5396H10.5353H10.5309H10.5265H10.5221H10.5176H10.5131H10.5086H10.5041H10.4995H10.4949H10.4903H10.4856H10.481H10.4763H10.4715H10.4668H10.462H10.4572H10.4524H10.4475H10.4427H10.4377H10.4328H10.4278H10.4229H10.4178H10.4128H10.4077H10.4026H10.3975H10.3923H10.3872H10.382H10.3767H10.3715H10.3662H10.3608H10.3555H10.3501H10.3447H10.3393H10.3338H10.3283H10.3228H10.3173H10.3117H10.3061H10.3005H10.2948H10.2891H10.2834H10.2777H10.2719H10.2661H10.2603H10.2544H10.2485H10.2426H10.2366H10.2307H10.2246H10.2186H10.2125H10.2064H10.2003H10.1942H10.188H10.1818H10.1755H10.1692H10.1629H10.1566H10.1502H10.1438H10.1374H10.131H10.1245H10.118H10.1114H10.1048H10.0982H10.0916H10.0849H10.0782H10.0715H10.0647H10.0579H10.0511H10.0442H10.0373H10.0304H10.0235H10.0165H10.0095H10.0024H9.99534H9.98823H9.98109H9.97391H9.96671H9.95947H9.9522H9.9449H9.93756H9.9302H9.9228H9.91537H9.9079H9.90041H9.89288H9.88531H9.87772H9.87009H9.86243H9.85474H9.84701H9.83926H9.83146H9.82364H9.81578H9.80789H9.79996H9.792H9.78401H9.77598H9.76792H9.75983H9.7517H9.74354H9.73535H9.72712H9.71885H9.71056H9.70223H9.69386H9.68546H9.67703H9.66856H9.66005H9.65152H9.64294H9.63434H9.62569H9.61702H9.6083H9.59956H9.59078H9.58196H9.57311H9.56422H9.5553H9.54634H9.53735H9.52832H9.51925H9.51015H9.50102H9.49185H9.48264H9.47339H9.46412H9.4548H9.44545H9.43606H9.42664H9.41718H9.40768H9.39815H9.38858H9.37897H9.36933H9.35965H9.34994H9.34018H9.33039H9.32057H9.31071H9.3008H9.29087H9.28089H9.27088H9.26083H9.25074H9.24062H9.23046H9.22026H9.21002H9.19975H9.18944H9.17908H9.1687H9.15827H9.14781H9.1373H9.12676H9.11618H9.10557H9.09491H9.08422H9.07349H9.06271H9.05191H9.04106H9.03017H9.01924H9.00828H8.99728H8.98623H8.97515H8.96403H8.95287H8.94167H8.93043H8.91915H8.90783H8.89648H8.88508H8.87364H8.86217H8.85065H8.8391H8.8275H8.81586H8.80419H8.79247H8.78071H8.76892H8.75708H8.7452H8.73329H8.72133H8.70933H8.69729H8.68521H8.67309H8.66092H8.64872H8.63648H8.62419H8.61187H8.5995H8.58709H8.57464H8.56215H8.54962H8.53704H8.52443H8.51177H8.49907H8.48633H8.47354H8.46072H8.44785H8.43494H8.42199H8.409H8.39596H8.38289H8.36977H8.35661H8.34343H8.33029H8.31717H8.30408H8.29101H8.27797H8.26496H8.25197H8.23901H8.22608H8.21317H8.20029H8.18743H8.1746H8.16179H8.14902H8.13626H8.12354H8.11084H8.09817H8.08552H8.0729H8.0603H8.04773H8.03519H8.02267H8.01018H7.99772H7.98528H7.97287H7.96048H7.94812H7.93579H7.92348H7.9112H7.89894H7.88671H7.87451H7.86233H7.85018H7.83805H7.82596H7.81388H7.80184H7.78982H7.77782H7.76585H7.75391H7.74199H7.7301H7.71824H7.7064H7.69459H7.6828H7.67104H7.65931H7.6476H7.63592H7.62427H7.61264H7.60103H7.58946H7.5779H7.56638H7.55488H7.54341H7.53196H7.52054H7.50915H7.49778H7.48643H7.47512H7.46383H7.45256H7.44132H7.43011H7.41892H7.40776H7.39663H7.38552H7.37444H7.36338H7.35235H7.34135H7.33037H7.31942H7.30849H7.29759H7.28672H7.27587H7.26505H7.25425H7.24348H7.23274H7.22202H7.21133H7.20066H7.19002H7.17941H7.16882H7.15826H7.14773H7.13722H7.12673H7.11627H7.10584H7.09544H7.08506H7.0747H7.06438H7.05407H7.0438H7.03355H7.02332H7.01313H7.00295H6.99281H6.98269H6.97259H6.96253H6.95248H6.94247H6.93248H6.92251H6.91258H6.90266H6.89278H6.88292H6.87308H6.86327H6.85349H6.84374H6.83401H6.8243H6.81462H6.80497H6.79534H6.78574H6.77617H6.76662H6.7571H6.7476H6.73813H6.72868H6.71926H6.70987H6.7005H6.69116H6.68185H6.67256H6.66329H6.65405H6.64484H6.63566H6.6265H6.61736H6.60826H6.59917H6.59012H6.58109H6.57208H6.5631H6.55415H6.54522H6.53632H6.52745H6.5186H6.50978H6.50098H6.49221H6.48346H6.47474H6.46605H6.45738H6.44874H6.44012H6.43153H6.42297H6.41443H6.40592H6.39743H6.38897H6.38054H6.37213H6.36374H6.35539H6.34705H6.33875H6.33047H6.32221H6.31399H6.30578H6.29761H6.28946H6.28133H6.27323H6.26516H6.25711H6.24909H6.2411H6.23313H6.22519H6.21727H6.20938H6.20151H6.19367H6.18585H6.17807H6.1703H6.16257H6.15485H6.14717H6.13951H6.13188H6.12427H6.11669H6.10913H6.1016H6.09409H6.08662H6.07916H6.07174H6.06433H6.05696H6.04961H6.04228H6.03499H6.02771H6.02047H6.01325H6.00605H5.99888H5.99174H5.98462H5.97753H5.97046H5.96342H5.95641H5.94942H5.94246H5.93552H5.92861H5.92172H5.91486H5.90803H5.90122H5.89444H5.88768H5.88095H5.87424H5.86756H5.86091H5.85428H5.84768H5.8411H5.83455H5.82803H5.82153H5.81505H5.80861H5.80219H5.79579H5.78942H5.78307H5.77675H5.77046H5.76419H5.75795H5.75174H5.74554H5.73938H5.73324H5.72713H5.72104H5.71498H5.70894H5.70293H5.69695H5.69099H5.68505H5.67915H5.67327H5.66741H5.66158H5.65577H5.65H5.64424H5.63851H5.63281H5.62714H5.62149H5.61586H5.61026H5.60469H5.59914H5.59362H5.58812H5.58265H5.57721H5.57179H5.56639H5.56102H5.55568H5.55037H5.54507H5.53981H5.53457H5.52936H5.52417H5.519H5.51387H5.50876H5.50367H5.49861H5.49358H5.48857H5.48358H5.47863H5.4737H5.46879H5.46391H5.45905H5.45422H5.44942H5.44464H5.43989H5.43516H5.43046H5.42579H5.42114H5.41651H5.41192H5.40734H5.40279H5.39827H5.39378H5.38931H5.38486H5.38044H5.37605H5.37168H5.36734H5.36302H5.35873H5.35447H5.35023H5.34601H5.34182H5.33766H5.33352H5.32941H5.32532H5.32126H5.31723H5.31322H5.30923H5.30528H5.30134H5.29744H5.29355H5.2897H5.28587H5.28206H5.27828H5.27453H5.2708H5.2671H5.26342H5.25977H5.25614H5.25254H5.24897H5.24542H5.2419H5.2384H5.23492H5.23148H5.22806H5.22466H5.22129H5.21794H5.21463H5.21133H5.20806H5.20482H5.2016H5.19841H5.19525H5.19211H5.18899H5.1859H5.18284H5.1798H5.17679H5.1738H5.17084H5.1679H5.16499H5.1621H5.15924H5.15641H5.1536H5.15082H5.14806H5.14533H5.14262H5.13994H5.13728H5.13465H5.13205H5.12947H5.12691H5.12439H5.12188H5.11941H5.11695H5.11453H5.11213H5.10975H5.1074H5.10508H5.10278H5.10051H5.09826H5.09603H5.09384H5.09167H5.08952H5.0874H5.0853H5.08323H5.08119H5.07917H5.07718H5.07521H5.07327H5.07135H5.06946H5.06759H5.06575H5.06394H5.06215H5.06038H5.05864H5.05693H5.05524H5.05358H5.05194H5.05033H5.04875H5.04719H5.04565H5.04414H5.04266H5.0412H5.03976H5.03835H5.03697H5.03561H5.03428H5.03298H5.03169H5.03044H5.02921H5.028H5.02682H5.02567H5.02454H5.02344H5.02236H5.02131H5.02028H5.01928H5.0183H5.01735H5.01643H5.01553H5.01465H5.0138H5.01298H5.01218H5.01141H5.01066H5.00993H5.00924H5.00857H5.00792H5.0073H5.0067H5.00613H5.00559H5.00507H5.00457H5.0041H5.00366H5.00324H5.00285H5.00248H5.00214H5.00182H5.00153H5.00127H5.00103H5.00081H5.00062H5.00046H5.00032H5.0002H5.00011H5.00005H5.00001L5 10.3647V9.61465C4.58579 9.61465 4.25 9.95044 4.25 10.3647C4.25 10.7789 4.58579 11.1147 5 11.1147V10.3647L5.00001 11.1147H5.00005H5.00011H5.0002H5.00032H5.00046H5.00062H5.00081H5.00103H5.00127H5.00153H5.00182H5.00214H5.00248H5.00285H5.00324H5.00366H5.0041H5.00457H5.00507H5.00559H5.00613H5.0067H5.0073H5.00792H5.00857H5.00924H5.00993H5.01066H5.01141H5.01218H5.01298H5.0138H5.01465H5.01553H5.01643H5.01735H5.0183H5.01928H5.02028H5.02131H5.02236H5.02344H5.02454H5.02567H5.02682H5.028H5.02921H5.03044H5.03169H5.03298H5.03428H5.03561H5.03697H5.03835H5.03976H5.0412H5.04266H5.04414H5.04565H5.04719H5.04875H5.05033H5.05194H5.05358H5.05524H5.05693H5.05864H5.06038H5.06215H5.06394H5.06575H5.06759H5.06946H5.07135H5.07327H5.07521H5.07718H5.07917H5.08119H5.08323H5.0853H5.0874H5.08952H5.09167H5.09384H5.09603H5.09826H5.10051H5.10278H5.10508H5.1074H5.10975H5.11213H5.11453H5.11695H5.11941H5.12188H5.12439H5.12691H5.12947H5.13205H5.13465H5.13728H5.13994H5.14262H5.14533H5.14806H5.15082H5.1536H5.15641H5.15924H5.1621H5.16499H5.1679H5.17084H5.1738H5.17679H5.1798H5.18284H5.1859H5.18899H5.19211H5.19525H5.19841H5.2016H5.20482H5.20806H5.21133H5.21463H5.21794H5.22129H5.22466H5.22806H5.23148H5.23492H5.2384H5.2419H5.24542H5.24897H5.25254H5.25614H5.25977H5.26342H5.2671H5.2708H5.27453H5.27828H5.28206H5.28587H5.2897H5.29355H5.29744H5.30134H5.30528H5.30923H5.31322H5.31723H5.32126H5.32532H5.32941H5.33352H5.33766H5.34182H5.34601H5.35023H5.35447H5.35873H5.36302H5.36734H5.37168H5.37605H5.38044H5.38486H5.38931H5.39378H5.39827H5.40279H5.40734H5.41192H5.41651H5.42114H5.42579H5.43046H5.43516H5.43989H5.44464H5.44942H5.45422H5.45905H5.46391H5.46879H5.4737H5.47863H5.48358H5.48857H5.49358H5.49861H5.50367H5.50876H5.51387H5.519H5.52417H5.52936H5.53457H5.53981H5.54507H5.55037H5.55568H5.56102H5.56639H5.57179H5.57721H5.58265H5.58812H5.59362H5.59914H5.60469H5.61026H5.61586H5.62149H5.62714H5.63281H5.63851H5.64424H5.65H5.65577H5.66158H5.66741H5.67327H5.67915H5.68505H5.69099H5.69695H5.70293H5.70894H5.71498H5.72104H5.72713H5.73324H5.73938H5.74554H5.75174H5.75795H5.76419H5.77046H5.77675H5.78307H5.78942H5.79579H5.80219H5.80861H5.81505H5.82153H5.82803H5.83455H5.8411H5.84768H5.85428H5.86091H5.86756H5.87424H5.88095H5.88768H5.89444H5.90122H5.90803H5.91486H5.92172H5.92861H5.93552H5.94246H5.94942H5.95641H5.96342H5.97046H5.97753H5.98462H5.99174H5.99888H6.00605H6.01325H6.02047H6.02771H6.03499H6.04228H6.04961H6.05696H6.06433H6.07174H6.07916H6.08662H6.09409H6.1016H6.10913H6.11669H6.12427H6.13188H6.13951H6.14717H6.15485H6.16257H6.1703H6.17807H6.18585H6.19367H6.20151H6.20938H6.21727H6.22519H6.23313H6.2411H6.24909H6.25711H6.26516H6.27323H6.28133H6.28946H6.29761H6.30578H6.31399H6.32221H6.33047H6.33875H6.34705H6.35539H6.36374H6.37213H6.38054H6.38897H6.39743H6.40592H6.41443H6.42297H6.43153H6.44012H6.44874H6.45738H6.46605H6.47474H6.48346H6.49221H6.50098H6.50978H6.5186H6.52745H6.53632H6.54522H6.55415H6.5631H6.57208H6.58109H6.59012H6.59917H6.60826H6.61736H6.6265H6.63566H6.64484H6.65405H6.66329H6.67256H6.68185H6.69116H6.7005H6.70987H6.71926H6.72868H6.73813H6.7476H6.7571H6.76662H6.77617H6.78574H6.79534H6.80497H6.81462H6.8243H6.83401H6.84374H6.85349H6.86327H6.87308H6.88292H6.89278H6.90266H6.91258H6.92251H6.93248H6.94247H6.95248H6.96253H6.97259H6.98269H6.99281H7.00295H7.01313H7.02332H7.03355H7.0438H7.05407H7.06438H7.0747H7.08506H7.09544H7.10584H7.11627H7.12673H7.13722H7.14773H7.15826H7.16882H7.17941H7.19002H7.20066H7.21133H7.22202H7.23274H7.24348H7.25425H7.26505H7.27587H7.28672H7.29759H7.30849H7.31942H7.33037H7.34135H7.35235H7.36338H7.37444H7.38552H7.39663H7.40776H7.41892H7.43011H7.44132H7.45256H7.46383H7.47512H7.48643H7.49778H7.50915H7.52054H7.53196H7.54341H7.55488H7.56638H7.5779H7.58946H7.60103H7.61264H7.62427H7.63592H7.6476H7.65931H7.67104H7.6828H7.69459H7.7064H7.71824H7.7301H7.74199H7.75391H7.76585H7.77782H7.78982H7.80184H7.81388H7.82596H7.83805H7.85018H7.86233H7.87451H7.88671H7.89894H7.9112H7.92348H7.93579H7.94812H7.96048H7.97287H7.98528H7.99772H8.01018H8.02267H8.03519H8.04773H8.0603H8.0729H8.08552H8.09817H8.11084H8.12354H8.13626H8.14902H8.16179H8.1746H8.18743H8.20029H8.21317H8.22608H8.23901H8.25197H8.26496H8.27797H8.29101H8.30408H8.31717H8.33029H8.34343H8.35661H8.36977H8.38289H8.39596H8.409H8.42199H8.43494H8.44785H8.46072H8.47354H8.48633H8.49907H8.51177H8.52443H8.53704H8.54962H8.56215H8.57464H8.58709H8.5995H8.61187H8.62419H8.63648H8.64872H8.66092H8.67309H8.68521H8.69729H8.70933H8.72133H8.73329H8.7452H8.75708H8.76892H8.78071H8.79247H8.80419H8.81586H8.8275H8.8391H8.85065H8.86217H8.87364H8.88508H8.89648H8.90783H8.91915H8.93043H8.94167H8.95287H8.96403H8.97515H8.98623H8.99728H9.00828H9.01924H9.03017H9.04106H9.05191H9.06271H9.07349H9.08422H9.09491H9.10557H9.11618H9.12676H9.1373H9.14781H9.15827H9.1687H9.17908H9.18944H9.19975H9.21002H9.22026H9.23046H9.24062H9.25074H9.26083H9.27088H9.28089H9.29087H9.3008H9.31071H9.32057H9.33039H9.34018H9.34994H9.35965H9.36933H9.37897H9.38858H9.39815H9.40768H9.41718H9.42664H9.43606H9.44545H9.4548H9.46412H9.47339H9.48264H9.49185H9.50102H9.51015H9.51925H9.52832H9.53735H9.54634H9.5553H9.56422H9.57311H9.58196H9.59078H9.59956H9.6083H9.61702H9.62569H9.63434H9.64294H9.65152H9.66005H9.66856H9.67703H9.68546H9.69386H9.70223H9.71056H9.71885H9.72712H9.73535H9.74354H9.7517H9.75983H9.76792H9.77598H9.78401H9.792H9.79996H9.80789H9.81578H9.82364H9.83146H9.83926H9.84701H9.85474H9.86243H9.87009H9.87772H9.88531H9.89288H9.90041H9.9079H9.91537H9.9228H9.9302H9.93756H9.9449H9.9522H9.95947H9.96671H9.97391H9.98109H9.98823H9.99534H10.0024H10.0095H10.0165H10.0235H10.0304H10.0373H10.0442H10.0511H10.0579H10.0647H10.0715H10.0782H10.0849H10.0916H10.0982H10.1048H10.1114H10.118H10.1245H10.131H10.1374H10.1438H10.1502H10.1566H10.1629H10.1692H10.1755H10.1818H10.188H10.1942H10.2003H10.2064H10.2125H10.2186H10.2246H10.2307H10.2366H10.2426H10.2485H10.2544H10.2603H10.2661H10.2719H10.2777H10.2834H10.2891H10.2948H10.3005H10.3061H10.3117H10.3173H10.3228H10.3283H10.3338H10.3393H10.3447H10.3501H10.3555H10.3608H10.3662H10.3715H10.3767H10.382H10.3872H10.3923H10.3975H10.4026H10.4077H10.4128H10.4178H10.4229H10.4278H10.4328H10.4377H10.4427H10.4475H10.4524H10.4572H10.462H10.4668H10.4715H10.4763H10.481H10.4856H10.4903H10.4949H10.4995H10.5041H10.5086H10.5131H10.5176H10.5221H10.5265H10.5309H10.5353H10.5396H10.544H10.5483H10.5526H10.5568H10.5611H10.5653H10.5694H10.5736H10.5777H10.5818H10.5859H10.59H10.594H10.598H10.602H10.606H10.6099H10.6138H10.6177H10.6215H10.6254H10.6292H10.633H10.6368H10.6405H10.6442H10.6479H10.6516H10.6552H10.6588H10.6624H10.666H10.6696H10.6731H10.6766H10.6801H10.6835H10.687H10.6904H10.6938H10.6972H10.7005H10.7038H10.7071H10.7104H10.7137H10.7169H10.7201H10.7233H10.7264H10.7296H10.7327H10.7358H10.7389H10.7419H10.745H10.748H10.751H10.7539H10.7569H10.7598H10.7627H10.7656H10.7684H10.7713H10.7741H10.7769H10.7797H10.7824H10.7852H10.7879H10.7906H10.7932H10.7959H10.7985H10.8011H10.8037H10.8063H10.8088H10.8113H10.8138H10.8163H10.8188H10.8212H10.8237H10.8261H10.8285H10.8308H10.8332H10.8355H10.8378H10.8401H10.8424H10.8446H10.8468H10.8491H10.8512H10.8534H10.8556H10.8577H10.8598H10.8619H10.864H10.866H10.8681H10.8701H10.8721H10.8741H10.8761H10.878H10.8799H10.8818H10.8837H10.8856H10.8875H10.8893H10.8911H10.8929H10.8947H10.8965H10.8982H10.9H10.9017H10.9034H10.9051H10.9067H10.9084H10.91H10.9116H10.9132H10.9148H10.9163H10.9179H10.9194H10.9209H10.9224H10.9239H10.9253H10.9268H10.9282H10.9296H10.931H10.9324H10.9338H10.9351H10.9364H10.9377H10.939H10.9403H10.9416H10.9428H10.9441H10.9453H10.9465H10.9477H10.9489H10.95H10.9512H10.9523H10.9534H10.9545H10.9556H10.9567H10.9577H10.9587H10.9598H10.9608H10.9618H10.9628H10.9637H10.9647H10.9656H10.9665H10.9674H10.9683H10.9692H10.9701H10.9709H10.9718H10.9726H10.9734H10.9742H10.975H10.9758H10.9765H10.9773H10.978H10.9787H10.9794H10.9801H10.9808H10.9814H10.9821H10.9827H10.9834H10.984H10.9846H10.9852H10.9857H10.9863H10.9868H10.9874H10.9879H10.9884H10.9889H10.9894H10.9899H10.9904H10.9908H10.9913H10.9917H10.9921H10.9925H10.9929H10.9933H10.9937H10.994H10.9944H10.9947H10.995H10.9953H10.9957H10.9959H10.9962H10.9965H10.9968H10.997H10.9973H10.9975H10.9977H10.9979H10.9981H10.9983H10.9985H10.9986H10.9988H10.999H10.9991H10.9992H10.9993H10.9994H10.9995H10.9996H10.9997H10.9998H10.9998H10.9999H10.9999H11H11H11Z" fill="current"/>
    </symbol>
    <symbol id="left" width="24" height="24" fill="current" viewBox="0 0 24 24">
      <path fill="current" fill-rule="evenodd" d="M8.293 12.707a1 1 0 0 1 0-1.414l5.657-5.657a1 1 0 1 1 1.414 1.414L10.414 12l4.95 4.95a1 1 0 0 1-1.414 1.414l-5.657-5.657Z" clip-rule="evenodd"/>
    </symbol>
    <symbol id="check-circle-fill" width="24" height="24" fill="current" viewBox="0 0 24 24">
      <path fill="current" d="M12 2c5.523 0 10 4.477 10 10s-4.477 10-10 10S2 17.523 2 12 6.477 2 12 2Zm3.535 6.381-4.95 4.95-2.12-2.121a1 1 0 0 0-1.415 1.414l2.758 2.758a1.1 1.1 0 0 0 1.556 0l5.586-5.586a1 1 0 0 0-1.415-1.415Z"/>
    </symbol>
    <symbol id="play-circle-line" width="24" height="24" fill="current" viewBox="0 0 24 24">
      <path fill="current" fill-rule="evenodd" d="M12 2c5.523 0 10 4.477 10 10s-4.477 10-10 10S2 17.523 2 12 6.477 2 12 2Zm0 2a8 8 0 1 0 0 16 8 8 0 0 0 0-16ZM8.964 8.65a1.192 1.192 0 0 1 1.654-.953l.325.143.44.202.349.169.39.196.43.223.462.251.494.28.249.145.469.282.428.268.564.368.464.318.455.328.083.061c.635.477.64 1.429.001 1.909l-.283.209-.393.276-.496.335-.387.25-.43.27-.473.283c-.082.049-.166.098-.252.147l-.498.282-.466.253-.43.224-.39.196-.505.242-.4.181-.202.088a1.191 1.191 0 0 1-1.651-.954l-.054-.499-.03-.334-.042-.599-.024-.46-.018-.506-.01-.549v-.579l.01-.548.018-.506.024-.46.042-.599.071-.73.012-.103Zm1.884 1.355-.027.467-.021.525-.012.58v.618l.012.58.02.525.028.467.416-.21.226-.118.488-.262.53-.299.522-.309.242-.148.444-.28.39-.255-.392-.257-.444-.281-.496-.3a30.129 30.129 0 0 0-.793-.453l-.488-.262-.442-.227-.203-.101Z" clip-rule="evenodd"/>
    </symbol>
    <symbol id="pause-circle-line" width="24" height="24" fill="current" viewBox="0 0 24 24">
      <path fill="current" d="M12 2c5.523 0 10 4.477 10 10s-4.477 10-10 10S2 17.523 2 12 6.477 2 12 2Zm0 2a8 8 0 1 0 0 16 8 8 0 0 0 0-16Zm-2 4a1 1 0 0 1 1 1v6a1 1 0 0 1-2 0V9a1 1 0 0 1 1-1Zm4 0a1 1 0 0 1 1 1v6a1 1 0 0 1-2 0V9a1 1 0 0 1 1-1Z"/>
    </symbol>
  </defs>
</svg>
